<svg width="196" height="38" viewBox="0 0 196 38" fill="none" xmlns="http://www.w3.org/2000/svg">
<path d="M20.2111 37.3518C17.4421 37.3518 14.8732 36.9181 12.5046 36.0507C10.1693 35.1499 8.13421 33.8822 6.39941 32.2474C4.69797 30.6127 3.36351 28.6944 2.39602 26.4926C1.42854 24.2573 0.944795 21.8053 0.944795 19.1363C0.944795 16.4674 1.42854 14.032 2.39602 11.8302C3.36351 9.59493 4.69797 7.65996 6.39941 6.02524C8.13421 4.39053 10.1693 3.13947 12.5046 2.27207C14.8732 1.3713 17.4421 0.920923 20.2111 0.920923C23.4472 0.920923 26.3329 1.48807 28.8684 2.62236C31.4373 3.75666 33.5724 5.39137 35.2738 7.52651L28.9685 13.2313C27.8342 11.8969 26.5832 10.8794 25.2153 10.1788C23.8809 9.47817 22.3796 9.12787 20.7115 9.12787C19.277 9.12787 17.9592 9.3614 16.7582 9.82846C15.5572 10.2955 14.523 10.9794 13.6556 11.8802C12.8215 12.7476 12.1543 13.7985 11.6539 15.0329C11.1868 16.2672 10.9533 17.6351 10.9533 19.1363C10.9533 20.6376 11.1868 22.0054 11.6539 23.2398C12.1543 24.4742 12.8215 25.5418 13.6556 26.4425C14.523 27.3099 15.5572 27.9772 16.7582 28.4442C17.9592 28.9113 19.277 29.1448 20.7115 29.1448C22.3796 29.1448 23.8809 28.7945 25.2153 28.0939C26.5832 27.3933 27.8342 26.3758 28.9685 25.0413L35.2738 30.7462C33.5724 32.8479 31.4373 34.4827 28.8684 35.6503C26.3329 36.7846 23.4472 37.3518 20.2111 37.3518ZM47.198 36.6512V1.62152H63.2116C66.4143 1.62152 69.1666 2.13862 71.4685 3.17283C73.8038 4.20704 75.6054 5.70831 76.8731 7.67664C78.1409 9.61161 78.7747 11.9136 78.7747 14.5825C78.7747 17.218 78.1409 19.5033 76.8731 21.4383C75.6054 23.3399 73.8038 24.8078 71.4685 25.842C69.1666 26.8429 66.4143 27.3433 63.2116 27.3433H52.7027L57.1064 23.1898V36.6512H47.198ZM68.8663 36.6512L60.159 23.8904H70.7179L79.4753 36.6512H68.8663ZM57.1064 24.2407L52.7027 19.6868H62.611C64.6795 19.6868 66.2141 19.2364 67.2149 18.3357C68.2491 17.4349 68.7663 16.1838 68.7663 14.5825C68.7663 12.9478 68.2491 11.68 67.2149 10.7793C66.2141 9.8785 64.6795 9.42812 62.611 9.42812H52.7027L57.1064 4.87427V24.2407ZM109.412 37.3518C106.61 37.3518 104.024 36.9014 101.656 36.0006C99.2871 35.0998 97.2187 33.8321 95.4506 32.1974C93.7158 30.5293 92.3646 28.5943 91.3971 26.3925C90.4296 24.1906 89.9459 21.7719 89.9459 19.1363C89.9459 16.5008 90.4296 14.0821 91.3971 11.8802C92.3646 9.67833 93.7158 7.76004 95.4506 6.12533C97.2187 4.45725 99.2871 3.17283 101.656 2.27207C104.024 1.3713 106.61 0.920923 109.412 0.920923C112.248 0.920923 114.834 1.3713 117.169 2.27207C119.538 3.17283 121.589 4.45725 123.324 6.12533C125.059 7.76004 126.41 9.67833 127.378 11.8802C128.378 14.0821 128.879 16.5008 128.879 19.1363C128.879 21.7719 128.378 24.2073 127.378 26.4425C126.41 28.6444 125.059 30.5627 123.324 32.1974C121.589 33.8321 119.538 35.0998 117.169 36.0006C114.834 36.9014 112.248 37.3518 109.412 37.3518ZM109.412 29.1448C110.747 29.1448 111.981 28.9113 113.116 28.4442C114.283 27.9772 115.284 27.3099 116.118 26.4425C116.985 25.5418 117.653 24.4742 118.12 23.2398C118.62 22.0054 118.87 20.6376 118.87 19.1363C118.87 17.6017 118.62 16.2339 118.12 15.0329C117.653 13.7985 116.985 12.7476 116.118 11.8802C115.284 10.9794 114.283 10.2955 113.116 9.82846C111.981 9.3614 110.747 9.12787 109.412 9.12787C108.078 9.12787 106.827 9.3614 105.659 9.82846C104.525 10.2955 103.524 10.9794 102.657 11.8802C101.823 12.7476 101.155 13.7985 100.655 15.0329C100.188 16.2339 99.9544 17.6017 99.9544 19.1363C99.9544 20.6376 100.188 22.0054 100.655 23.2398C101.155 24.4742 101.823 25.5418 102.657 26.4425C103.524 27.3099 104.525 27.9772 105.659 28.4442C106.827 28.9113 108.078 29.1448 109.412 29.1448ZM149.059 36.6512L137.7 1.62152H147.908L157.466 31.9472H152.312L162.37 1.62152H171.478L180.986 31.9472H176.032L185.89 1.62152H195.348L183.989 36.6512H173.38L165.273 10.8794H168.125L159.668 36.6512H149.059Z" fill="#F97304"/>
</svg>
