<svg width="209" height="122" viewBox="0 0 209 122" fill="none" xmlns="http://www.w3.org/2000/svg">
<path d="M12.8396 114.99C11.2077 114.99 9.6937 114.735 8.29771 114.223C6.92138 113.693 5.72201 112.945 4.69959 111.982C3.69683 111.019 2.91036 109.888 2.34016 108.59C1.76997 107.273 1.48487 105.828 1.48487 104.255C1.48487 102.682 1.76997 101.247 2.34016 99.949C2.91036 98.6316 3.69683 97.4912 4.69959 96.5278C5.72201 95.5644 6.92138 94.827 8.29771 94.3158C9.6937 93.785 11.2077 93.5195 12.8396 93.5195C14.7468 93.5195 16.4476 93.8538 17.9419 94.5223C19.4558 95.1908 20.7142 96.1542 21.7169 97.4126L18.0008 100.775C17.3323 99.9883 16.595 99.3886 15.7889 98.9757C15.0024 98.5628 14.1176 98.3563 13.1345 98.3563C12.2891 98.3563 11.5124 98.494 10.8046 98.7692C10.0968 99.0445 9.48725 99.4476 8.97605 99.9785C8.4845 100.49 8.09126 101.109 7.79633 101.836C7.52107 102.564 7.38343 103.37 7.38343 104.255C7.38343 105.14 7.52107 105.946 7.79633 106.673C8.09126 107.401 8.4845 108.03 8.97605 108.561C9.48725 109.072 10.0968 109.465 10.8046 109.741C11.5124 110.016 12.2891 110.153 13.1345 110.153C14.1176 110.153 15.0024 109.947 15.7889 109.534C16.595 109.121 17.3323 108.522 18.0008 107.735L21.7169 111.097C20.7142 112.336 19.4558 113.299 17.9419 113.988C16.4476 114.656 14.7468 114.99 12.8396 114.99ZM28.7445 114.577V93.9324H38.1822C40.0698 93.9324 41.6919 94.2372 43.0485 94.8467C44.4249 95.4562 45.4866 96.341 46.2338 97.5011C46.9809 98.6414 47.3545 99.9981 47.3545 101.571C47.3545 103.124 46.9809 104.471 46.2338 105.612C45.4866 106.732 44.4249 107.597 43.0485 108.207C41.6919 108.797 40.0698 109.092 38.1822 109.092H31.9887L34.5841 106.644V114.577H28.7445ZM41.5149 114.577L36.3832 107.057H42.6061L47.7674 114.577H41.5149ZM34.5841 107.263L31.9887 104.579H37.8283C39.0473 104.579 39.9518 104.314 40.5416 103.783C41.1512 103.252 41.4559 102.515 41.4559 101.571C41.4559 100.608 41.1512 99.8605 40.5416 99.3296C39.9518 98.7987 39.0473 98.5333 37.8283 98.5333H31.9887L34.5841 95.8495V107.263ZM65.411 114.99C63.7594 114.99 62.2356 114.725 60.8396 114.194C59.4436 113.663 58.2246 112.916 57.1825 111.953C56.1601 110.969 55.3638 109.829 54.7936 108.531C54.2234 107.234 53.9383 105.808 53.9383 104.255C53.9383 102.702 54.2234 101.276 54.7936 99.9785C55.3638 98.6808 56.1601 97.5502 57.1825 96.5868C58.2246 95.6037 59.4436 94.8467 60.8396 94.3158C62.2356 93.785 63.7594 93.5195 65.411 93.5195C67.0823 93.5195 68.606 93.785 69.9824 94.3158C71.3784 94.8467 72.5876 95.6037 73.61 96.5868C74.6324 97.5502 75.4287 98.6808 75.9989 99.9785C76.5888 101.276 76.8837 102.702 76.8837 104.255C76.8837 105.808 76.5888 107.244 75.9989 108.561C75.4287 109.859 74.6324 110.989 73.61 111.953C72.5876 112.916 71.3784 113.663 69.9824 114.194C68.606 114.725 67.0823 114.99 65.411 114.99ZM65.411 110.153C66.1975 110.153 66.925 110.016 67.5935 109.741C68.2816 109.465 68.8715 109.072 69.363 108.561C69.8742 108.03 70.2675 107.401 70.5427 106.673C70.8377 105.946 70.9851 105.14 70.9851 104.255C70.9851 103.35 70.8377 102.544 70.5427 101.836C70.2675 101.109 69.8742 100.49 69.363 99.9785C68.8715 99.4476 68.2816 99.0445 67.5935 98.7692C66.925 98.494 66.1975 98.3563 65.411 98.3563C64.6245 98.3563 63.8872 98.494 63.199 98.7692C62.5305 99.0445 61.9407 99.4476 61.4295 99.9785C60.9379 100.49 60.5447 101.109 60.2498 101.836C59.9745 102.544 59.8369 103.35 59.8369 104.255C59.8369 105.14 59.9745 105.946 60.2498 106.673C60.5447 107.401 60.9379 108.03 61.4295 108.561C61.9407 109.072 62.5305 109.465 63.199 109.741C63.8872 110.016 64.6245 110.153 65.411 110.153ZM88.7771 114.577L82.0823 93.9324H88.0988L93.7319 111.805H90.6942L96.6222 93.9324H101.99L107.594 111.805H104.674L110.484 93.9324H116.058L109.363 114.577H103.111L98.3328 99.3886H100.014L95.0296 114.577H88.7771Z" fill="#F97304"/>
<path fill-rule="evenodd" clip-rule="evenodd" d="M59.0944 0.383267C59.1799 0.606001 61.0376 2.44832 63.2223 4.47764C69.7481 10.5385 77.2926 16.7361 88.7397 25.4385C120.647 49.695 126.662 55.0579 131.778 63.808C132.414 64.8964 133.008 65.7864 133.096 65.7858C133.185 65.7855 133.629 64.7323 134.083 63.4456C136.233 57.3544 140.403 52.9202 146.855 49.8618C155.084 45.9619 164.376 45.7945 171.65 49.416C176.092 51.6273 180.526 55.557 183.26 59.7032L184.844 62.1062L187.31 62.7828C192.192 64.1213 196.525 66.1232 200.949 69.0839C203.883 71.0471 209 75.7919 209 76.5482C209 76.9383 208.062 76.9788 201.736 76.8615C186.325 76.5762 179.919 78.3718 176.18 84.025C175.611 84.885 174.064 87.5634 172.741 89.9772C169.844 95.2662 168.494 97.3119 165.74 100.583C161.336 105.814 156.449 109.156 149.839 111.459C144.887 113.183 141.229 113.777 134.488 113.951L128.575 114.103L128.811 111.31C129.211 106.585 129.038 101.934 128.367 99.3382C127.548 96.1699 126.479 94.2854 124.184 91.9681C119.034 86.766 110.402 85.4069 95.766 84.2697C93.4744 84.0917 89.501 83.5292 88.5189 83.3764C81.6711 82.3116 77.778 78.1398 74.6793 73.6166C73.1641 71.4051 71.865 67.5733 72.6302 67.5733C72.7591 67.5733 74.8248 68.031 77.2209 68.5905C79.6167 69.15 84.7008 70.1657 88.5189 70.8476C101.376 73.1438 103.485 73.555 106.795 74.4123C108.61 74.8825 111.288 75.7269 112.748 76.2891C114.207 76.851 115.669 77.4094 115.996 77.5294C117.227 77.9805 113.367 75.4607 110.944 73.9966C106.601 71.3717 102.533 70.1732 93.2286 67.0871C82.6904 63.5921 75.9426 60.5411 71.6593 58.3635C60.0155 52.4441 55.7594 44.1425 55.7344 35.1905C55.7317 34.1671 55.8073 33.3295 55.9022 33.3295C55.9975 33.3295 57.3704 34.1912 58.9528 35.2441C63.3688 38.1826 75.7525 44.398 93.2286 52.4468C102.995 56.9449 115.035 63.0826 118.228 65.1908C118.637 65.4609 119.497 65.9981 120.137 66.3846L121.302 67.0871L120.623 65.8308C119.546 64.35 118.2 63.273 117.257 62.4652C111.61 58.1475 109.348 57.7685 91.8971 47.6437C76.6399 38.7912 71.7921 34.5798 68.832 32.0106C62.2381 26.2883 60.0132 20.3007 58.3912 14.1231C57.4808 10.6564 57.3055 6.03738 57.9573 2.68058C58.4587 0.0977012 58.7552 -0.501417 59.0944 0.383267ZM164.068 59.7032C162.758 60.2961 161.092 61.2396 161.092 62.8301C161.39 64.3663 163.348 65.5098 166.003 65.7858C168.954 66.0928 171.859 66.1753 171.243 63.4325C170.483 60.0516 166.698 58.5142 164.068 59.7032Z" fill="#023D67"/>
</svg>
