<svg width="20" height="20" viewBox="0 0 20 20" fill="none" xmlns="http://www.w3.org/2000/svg">
<path d="M0 1.10333C0 0.494445 0.494445 0 1.10333 0H18.8967C19.5056 0 20 0.494445 20 1.10333V18.8967C19.9997 19.1892 19.8834 19.4697 19.6765 19.6765C19.4697 19.8834 19.1892 19.9997 18.8967 20H1.10333C0.810711 20 0.530074 19.8838 0.323159 19.6768C0.116244 19.4699 0 19.1893 0 18.8967V1.10333ZM8.46889 6.01667C8.40202 5.97205 8.3243 5.94641 8.24401 5.94247C8.16372 5.93853 8.08386 5.95644 8.01294 5.99429C7.94202 6.03214 7.8827 6.08852 7.84129 6.15742C7.79988 6.22633 7.77793 6.30517 7.77778 6.38556V13.6144C7.77793 13.6948 7.79988 13.7737 7.84129 13.8426C7.8827 13.9115 7.94202 13.9679 8.01294 14.0057C8.08386 14.0436 8.16372 14.0615 8.24401 14.0575C8.3243 14.0536 8.40202 14.0279 8.46889 13.9833L13.89 10.37C13.951 10.3294 14.001 10.2744 14.0355 10.2099C14.0701 10.1453 14.0882 10.0732 14.0882 10C14.0882 9.92677 14.0701 9.85468 14.0355 9.79013C14.001 9.72558 13.951 9.67057 13.89 9.63L8.46889 6.01667Z" fill="white"/>
</svg>
